<?xml version="1.0" encoding="UTF-8" standalone="no"?>
<svg
   width="164"
   height="38"
   viewBox="0 0 164 38"
   fill="none"
   version="1.1"
   id="svg20"
   xmlns="http://www.w3.org/2000/svg"
   xmlns:svg="http://www.w3.org/2000/svg">
  <g
     filter="url(#filter0_dd_4155_249)"
     id="g5">
    <rect
       x="3.0999999"
       y="2.0999999"
       width="31.799999"
       height="31.799999"
       rx="7.9000001"
       fill="#ffffff"
       id="rect1" />
    <rect
       x="3.0999999"
       y="2.0999999"
       width="31.799999"
       height="31.799999"
       rx="7.9000001"
       fill="url(#paint0_linear_4155_249)"
       id="rect2"
       style="fill:url(#paint0_linear_4155_249)" />
    <rect
       x="3.0999999"
       y="2.0999999"
       width="31.799999"
       height="31.799999"
       rx="7.9000001"
       stroke="#d0d5dd"
       stroke-width="0.2"
       id="rect3" />
    <path
       d="m 18.3546,13.1827 c 4.3559,-1.7324 9.1196,-0.3643 11.2827,1.7305 0.4687,0.4539 0.8668,0.9143 1.2077,1.3719 0.1944,-1.0744 0.2102,-2.1446 0.0231,-3.1796 -0.6834,-3.77904 -4.2486,-5.91992 -7.4448,-4.81404 -3.1818,1.10091 -4.4228,3.24064 -4.4228,3.24064 0,0 -1.241,-2.13973 -4.4228,-3.24064 -3.1965,-1.10588 -6.76167,1.03523 -7.4449,4.81404 -0.50438,2.7889 0.45076,5.8336 2.47753,8.5243 0.42687,0.1434 0.87437,0.2511 1.34827,0.3132 2.8392,0.3733 3.8598,-0.386 5.0592,-0.8944 0.7964,-0.3374 1.3956,0.0456 1.3665,0.314 -0.0451,0.416 -1.615,1.1269 -1.2783,1.2762 1.3291,0.5896 2.9658,0.5946 4.1993,-0.4588 1.5327,-1.3088 2.1061,-0.4142 2.1061,-0.4142 0,0 -0.7612,1.9418 -3.0533,2.9059 -1.9124,0.8044 -3.9162,1.0026 -5.7474,0.7966 1.5793,1.1163 3.3928,2.0521 5.3898,2.7199 5.7094,-1.9098 9.9271,-6.0011 11.414,-10.2786 -1.0073,-0.9939 -2.2429,-1.6101 -3.7157,-1.8333 -2.8314,-0.4293 -3.8666,0.3099 -5.076,0.7945 -0.803,0.3218 -1.3943,-0.073 -1.3598,-0.3409 0.0531,-0.4151 1.6369,-1.0948 1.3031,-1.2509 -1.3171,-0.6157 -2.9536,-0.653 -4.2076,0.3758 -1.5582,1.2784 -2.1139,0.3726 -2.1139,0.3726 0,0 0.7992,-1.9259 3.11,-2.8447 z m -1.0837,5.3224 h 1.1 v -1.0999 h 1.2587 v 1.0999 h 1.1 v 1.2588 h -1.1 v 1.0999 h -1.2587 v -1.0999 h -1.1 z"
       fill="url(#paint1_linear_4155_249)"
       id="path3"
       style="fill:url(#paint1_linear_4155_249)" />
    <path
       d="m 17.2709,18.5052 h 1.1 v -1.1 h 1.2587 v 1.1 h 1.0999 v 1.2587 h -1.0917 c 1.6219,0.8195 4.6005,2.0388 8.1799,2.5812 1.1779,-1.3934 2.0636,-2.9023 2.5966,-4.4355 -1.0074,-0.9939 -2.243,-1.61 -3.7157,-1.8333 -2.8314,-0.4293 -3.8667,0.31 -5.076,0.7945 -0.803,0.3218 -1.3944,-0.073 -1.3599,-0.3409 0.0532,-0.4151 1.637,-1.0948 1.3032,-1.2509 -1.3171,-0.6157 -2.9536,-0.653 -4.2076,0.3758 -1.5583,1.2784 -2.114,0.3726 -2.114,0.3726 0,0 0.7995,-1.9261 3.11,-2.8451 4.3559,-1.7324 9.1196,-0.3643 11.2827,1.7305 0.4687,0.4538 0.8668,0.9143 1.2077,1.3719 C 31.0392,15.2102 31.055,14.14 30.8679,13.105 30.1844,9.326 26.6192,7.18512 23.423,8.291 c -3.1818,1.10091 -4.4228,3.2406 -4.4228,3.2406 0,0 -1.241,-2.13969 -4.4228,-3.2406 -1.8255,-0.63173 -3.7707,-0.2027 -5.23121,0.98421 0.68611,1.46899 1.48981,2.84159 3.77921,5.60209 1.8614,2.2449 4.1455,3.6279 4.1455,3.6279 z"
       fill="url(#paint2_linear_4155_249)"
       id="path4"
       style="fill:url(#paint2_linear_4155_249)" />
    <path
       opacity="0.31"
       d="m 27.277,9.64942 c -3.0058,-1.5101 -6.108,0.83958 -7.0919,2.08038 1.6969,-0.3574 3.1817,-0.5408 5.0606,-0.146 2.7795,0.584 3.8197,1.5876 5.0607,3.0703 -0.2193,-2.7473 -1.9545,-4.4646 -3.0294,-5.00468 z"
       fill="url(#paint3_linear_4155_249)"
       id="path5"
       style="fill:url(#paint3_linear_4155_249)" />
  </g>
  <defs
     id="defs20">
    <filter
       id="filter0_dd_4155_249"
       x="0"
       y="0"
       width="38"
       height="38"
       filterUnits="userSpaceOnUse"
       color-interpolation-filters="sRGB">
      <feFlood
         flood-opacity="0"
         result="BackgroundImageFix"
         id="feFlood6" />
      <feColorMatrix
         in="SourceAlpha"
         type="matrix"
         values="0 0 0 0 0 0 0 0 0 0 0 0 0 0 0 0 0 0 127 0"
         result="hardAlpha"
         id="feColorMatrix6" />
      <feOffset
         dy="1"
         id="feOffset6" />
      <feGaussianBlur
         stdDeviation="1"
         id="feGaussianBlur6" />
      <feColorMatrix
         type="matrix"
         values="0 0 0 0 0.0627451 0 0 0 0 0.0941176 0 0 0 0 0.156863 0 0 0 0.06 0"
         id="feColorMatrix7" />
      <feBlend
         mode="normal"
         in2="BackgroundImageFix"
         result="effect1_dropShadow_4155_249"
         id="feBlend7" />
      <feColorMatrix
         in="SourceAlpha"
         type="matrix"
         values="0 0 0 0 0 0 0 0 0 0 0 0 0 0 0 0 0 0 127 0"
         result="hardAlpha"
         id="feColorMatrix8" />
      <feOffset
         dy="1"
         id="feOffset8" />
      <feGaussianBlur
         stdDeviation="1.5"
         id="feGaussianBlur8" />
      <feColorMatrix
         type="matrix"
         values="0 0 0 0 0.0627451 0 0 0 0 0.0941176 0 0 0 0 0.156863 0 0 0 0.1 0"
         id="feColorMatrix9" />
      <feBlend
         mode="normal"
         in2="effect1_dropShadow_4155_249"
         result="effect2_dropShadow_4155_249"
         id="feBlend9" />
      <feBlend
         mode="normal"
         in="SourceGraphic"
         in2="effect2_dropShadow_4155_249"
         result="shape"
         id="feBlend10" />
    </filter>
    <linearGradient
       id="paint0_linear_4155_249"
       x1="19"
       y1="2"
       x2="19"
       y2="34"
       gradientUnits="userSpaceOnUse">
      <stop
         stop-color="white"
         id="stop10" />
      <stop
         offset="1"
         stop-color="#D0D5DD"
         id="stop11" />
    </linearGradient>
    <linearGradient
       id="paint1_linear_4155_249"
       x1="10.1989"
       y1="24.213699"
       x2="27.8347"
       y2="6.5778799"
       gradientUnits="userSpaceOnUse">
      <stop
         stop-color="#0076C1"
         id="stop12" />
      <stop
         offset="0.0737"
         stop-color="#0B82C6"
         id="stop13" />
      <stop
         offset="0.2766"
         stop-color="#269ED3"
         id="stop14" />
      <stop
         offset="0.4546"
         stop-color="#36AFDA"
         id="stop15" />
      <stop
         offset="0.587"
         stop-color="#3CB5DD"
         id="stop16" />
    </linearGradient>
    <linearGradient
       id="paint2_linear_4155_249"
       x1="10.1388"
       y1="24.2537"
       x2="27.8274"
       y2="6.5650902"
       gradientUnits="userSpaceOnUse">
      <stop
         stop-color="#00A482"
         id="stop17" />
      <stop
         offset="1"
         stop-color="#79DD83"
         id="stop18" />
    </linearGradient>
    <linearGradient
       id="paint3_linear_4155_249"
       x1="24.8608"
       y1="13.5072"
       x2="28.528799"
       y2="10.1131"
       gradientUnits="userSpaceOnUse">
      <stop
         stop-color="#00A482"
         id="stop19" />
      <stop
         offset="1"
         stop-color="#79DD83"
         id="stop20" />
    </linearGradient>
  </defs>
  <text
     xml:space="preserve"
     style="font-style:normal;font-variant:normal;font-weight:normal;font-stretch:normal;font-size:32px;font-family:'Century Gothic';-inkscape-font-specification:'Century Gothic';fill:#333333"
     x="53.069138"
     y="19.521025"
     id="text21"><tspan
       id="tspan21"
       x="53.069138"
       y="19.521025"
       dy="9.2344999"
       dx="-6.078402"
       style="font-style:normal;font-variant:normal;font-weight:normal;font-stretch:normal;font-size:32px;font-family:'Century Gothic';-inkscape-font-specification:'Century Gothic';fill:#ffffff">Clinitia</tspan></text>
</svg>
